<?xml version="1.0" encoding="UTF-8" standalone="no"?>
<!-- Created with Inkscape (http://www.inkscape.org/) -->

<svg
   xmlns:dc="http://purl.org/dc/elements/1.1/"
   xmlns:cc="http://creativecommons.org/ns#"
   xmlns:rdf="http://www.w3.org/1999/02/22-rdf-syntax-ns#"
   xmlns:svg="http://www.w3.org/2000/svg"
   xmlns="http://www.w3.org/2000/svg"
   version="1.1"
   width="22"
   height="22"
   viewBox="0 0 22 22"
   id="svg2"
   xml:space="preserve"><metadata
     id="metadata17"><rdf:RDF><cc:Work
         rdf:about=""><dc:format>image/svg+xml</dc:format><dc:type
           rdf:resource="http://purl.org/dc/dcmitype/StillImage" /><dc:title></dc:title></cc:Work></rdf:RDF></metadata><defs
     id="defs15" /><g
     transform="matrix(0.18877849,0,0,0.15600138,2.4576275,6.288136)"
     id="g3027"
     style="fill:#bebebe;fill-opacity:1"><g
       id="g2987"
       style="fill:#bebebe;fill-opacity:1"><path
         d="m 71.168444,-29.616101 -47.771853,0 c -6.914347,0 -12.57154,5.530203 -12.57154,12.289343 l 0,95.856881 c 0,6.759133 5.657193,12.28934 12.57154,12.28934 l 47.771853,0 c 6.914347,0 12.571539,-5.530207 12.571539,-12.28934 l 0,-95.856881 c 0,-6.75914 -5.657192,-12.289343 -12.571539,-12.289343 z M 47.282518,83.256785 c -4.858901,0 -8.800079,-2.75035 -8.800079,-6.144672 0,-3.394315 3.941178,-6.144673 8.800079,-6.144673 4.857641,0 8.800078,2.750358 8.800078,6.144673 0,3.395548 -3.942437,6.144672 -8.800078,6.144672 z m 22.788349,-19.525655 -45.576699,0 0,-73.6325079 45.576699,0 z"
         id="path2989-8"
         style="opacity:0.3;fill-opacity:1" /><path
         d="m 69.362502,-30.674876 -47.771853,0 c -6.914346,0 -12.5715402,5.530205 -12.5715402,12.289344 l 0,95.856876 c 0,6.759139 5.6571942,12.289344 12.5715402,12.289344 l 47.771853,0 c 6.914348,0 12.571541,-5.530205 12.571541,-12.289344 l 0,-95.856876 c 0,-6.759139 -5.657193,-12.289344 -12.571541,-12.289344 z M 45.476576,82.198014 c -4.858901,0 -8.800079,-2.750354 -8.800079,-6.144672 0,-3.394315 3.941178,-6.144671 8.800079,-6.144671 4.857643,0 8.800078,2.750356 8.800078,6.144671 0,3.395547 -3.942435,6.144672 -8.800078,6.144672 z m 22.788349,-19.525657 -45.576699,0 0,-73.63251 45.576699,0 z"
         id="path2989"
         style="fill:#dfdbd2;fill-opacity:1" /></g><g
       id="g2991"
       style="fill:#bebebe;fill-opacity:1" /><g
       id="g2993"
       style="fill:#bebebe;fill-opacity:1" /><g
       id="g2995"
       style="fill:#bebebe;fill-opacity:1" /><g
       id="g2997"
       style="fill:#bebebe;fill-opacity:1" /><g
       id="g2999"
       style="fill:#bebebe;fill-opacity:1" /><g
       id="g3001"
       style="fill:#bebebe;fill-opacity:1" /><g
       id="g3003"
       style="fill:#bebebe;fill-opacity:1" /><g
       id="g3005"
       style="fill:#bebebe;fill-opacity:1" /><g
       id="g3007"
       style="fill:#bebebe;fill-opacity:1" /><g
       id="g3009"
       style="fill:#bebebe;fill-opacity:1" /><g
       id="g3011"
       style="fill:#bebebe;fill-opacity:1" /><g
       id="g3013"
       style="fill:#bebebe;fill-opacity:1" /><g
       id="g3015"
       style="fill:#bebebe;fill-opacity:1" /><g
       id="g3017"
       style="fill:#bebebe;fill-opacity:1" /><g
       id="g3019"
       style="fill:#bebebe;fill-opacity:1" /></g></svg>