<?xml version="1.0" encoding="UTF-8" standalone="no"?>
<!-- Created with Inkscape (http://www.inkscape.org/) -->

<svg
   xmlns:dc="http://purl.org/dc/elements/1.1/"
   xmlns:cc="http://creativecommons.org/ns#"
   xmlns:rdf="http://www.w3.org/1999/02/22-rdf-syntax-ns#"
   xmlns:svg="http://www.w3.org/2000/svg"
   xmlns="http://www.w3.org/2000/svg"
   xmlns:sodipodi="http://sodipodi.sourceforge.net/DTD/sodipodi-0.dtd"
   xmlns:inkscape="http://www.inkscape.org/namespaces/inkscape"
   version="1.1"
   width="16"
   height="16"
   viewBox="0 0 16 16"
   id="svg2"
   xml:space="preserve"
   inkscape:version="0.48.4 r9939"
   sodipodi:docname="indicator-deskcon.svg"><sodipodi:namedview
     pagecolor="#ffffff"
     bordercolor="#666666"
     borderopacity="1"
     objecttolerance="10"
     gridtolerance="10"
     guidetolerance="10"
     inkscape:pageopacity="0"
     inkscape:pageshadow="2"
     inkscape:window-width="1069"
     inkscape:window-height="629"
     id="namedview10"
     showgrid="false"
     inkscape:zoom="14.75"
     inkscape:cx="-1.9322034"
     inkscape:cy="8"
     inkscape:window-x="643"
     inkscape:window-y="280"
     inkscape:window-maximized="0"
     inkscape:current-layer="g2987"
     showguides="true"><sodipodi:guide
       position="0,0"
       orientation="0,16"
       id="guide3814" /><sodipodi:guide
       position="16,0"
       orientation="-16,0"
       id="guide3816" /><sodipodi:guide
       position="16,16"
       orientation="0,-16"
       id="guide3818" /><sodipodi:guide
       position="0,16"
       orientation="16,0"
       id="guide3820" /></sodipodi:namedview><metadata
     id="metadata17"><rdf:RDF><cc:Work
         rdf:about=""><dc:format>image/svg+xml</dc:format><dc:type
           rdf:resource="http://purl.org/dc/dcmitype/StillImage" /><dc:title /></cc:Work></rdf:RDF></metadata><defs
     id="defs15" /><g
     id="g3027"
     transform="matrix(0.18877849,0,0,0.15600138,2.4576275,0.28813605)"
     style="fill:#bebebe;fill-opacity:1"><g
       id="g2987"
       style="fill:#bebebe;fill-opacity:1"><path
         id="path2989-8"
         d="m 50.154798,1.303769 -38,0 c -5.5,0 -10,4.539911 -10,10.088692 l 0,78.691799 c 0,5.548777 4.5,10.08869 10,10.08869 l 38,0 c 5.499999,0 9.999998,-4.539913 9.999998,-10.08869 l 0,-78.691799 c 0,-5.548781 -4.499999,-10.088692 -9.999998,-10.088692 z m -19,92.660751 c -3.865,0 -7,-2.257845 -7,-5.044346 0,-2.786495 3.135,-5.044347 7,-5.044347 3.863999,0 7,2.257852 7,5.044347 0,2.787507 -3.136001,5.044346 -7,5.044346 z m 18.126935,-16.029198 -36.25387,0 0,-60.447143 36.25387,0 z"
         inkscape:connector-curvature="0"
         style="opacity:0.3;fill-opacity:1"
         sodipodi:nodetypes="ssssssssssssssccccc" /><path
         id="path2989"
         d="m 48.718266,0.43458978 -38,0 c -5.4999997,0 -9.99999974,4.53991132 -9.99999974,10.08869122 l 0,78.691796 c 0,5.548781 4.50000004,10.088692 9.99999974,10.088692 l 38,0 c 5.5,0 10,-4.539911 10,-10.088692 l 0,-78.691796 c 0,-5.5487799 -4.5,-10.08869122 -10,-10.08869122 z m -19,92.66075322 c -3.865,0 -7,-2.257849 -7,-5.044346 0,-2.786496 3.135,-5.044346 7,-5.044346 3.864,0 7,2.25785 7,5.044346 0,2.787506 -3.136,5.044346 -7,5.044346 z m 18.126935,-16.029199 -36.25387,0 0,-60.447145 36.25387,0 z"
         inkscape:connector-curvature="0"
         style="fill:#dfdbd2;fill-opacity:1"
         sodipodi:nodetypes="ssssssssssssssccccc" /></g><g
       id="g2991"
       style="fill:#bebebe;fill-opacity:1" /><g
       id="g2993"
       style="fill:#bebebe;fill-opacity:1" /><g
       id="g2995"
       style="fill:#bebebe;fill-opacity:1" /><g
       id="g2997"
       style="fill:#bebebe;fill-opacity:1" /><g
       id="g2999"
       style="fill:#bebebe;fill-opacity:1" /><g
       id="g3001"
       style="fill:#bebebe;fill-opacity:1" /><g
       id="g3003"
       style="fill:#bebebe;fill-opacity:1" /><g
       id="g3005"
       style="fill:#bebebe;fill-opacity:1" /><g
       id="g3007"
       style="fill:#bebebe;fill-opacity:1" /><g
       id="g3009"
       style="fill:#bebebe;fill-opacity:1" /><g
       id="g3011"
       style="fill:#bebebe;fill-opacity:1" /><g
       id="g3013"
       style="fill:#bebebe;fill-opacity:1" /><g
       id="g3015"
       style="fill:#bebebe;fill-opacity:1" /><g
       id="g3017"
       style="fill:#bebebe;fill-opacity:1" /><g
       id="g3019"
       style="fill:#bebebe;fill-opacity:1" /></g></svg>